<svg xmlns="http://www.w3.org/2000/svg" xmlns:xlink="http://www.w3.org/1999/xlink" width="896pt" height="284pt" viewBox="0 0 896 284"><g id="graph0" class="graph" transform="scale(1 1) rotate(0) translate(4 280)"><title>dependencies</title><polygon fill="#fff" stroke="transparent" points="-4 4 -4 -280 892 -280 892 4 -4 4"/><text x="423.01" y="-42.4" font-family="Times-12" font-size="14" font-weight="bold" text-anchor="start">Legend</text><polygon fill="#ffffb3" stroke="transparent" points="210 -10 210 -30 230 -30 230 -10 210 -10"/><text x="233.63" y="-15.4" font-family="Times-12" font-size="14" text-anchor="start">Declarations</text><polygon fill="#8dd3c7" stroke="transparent" points="323 -10 323 -30 343 -30 343 -10 323 -10"/><text x="346.73" y="-15.4" font-family="Times-12" font-size="14" text-anchor="start">Module</text><polygon fill="#80b1d3" stroke="transparent" points="409 -10 409 -30 429 -30 429 -10 409 -10"/><text x="432.78" y="-15.4" font-family="Times-12" font-size="14" text-anchor="start">Bootstrap</text><polygon fill="#fdb462" stroke="transparent" points="506 -10 506 -30 526 -30 526 -10 506 -10"/><text x="529.67" y="-15.4" font-family="Times-12" font-size="14" text-anchor="start">Providers</text><polygon fill="#fb8072" stroke="transparent" points="602 -10 602 -30 622 -30 622 -10 602 -10"/><text x="625.73" y="-15.4" font-family="Times-12" font-size="14" text-anchor="start">Exports</text><g id="clust1" class="cluster"><title>cluster_AppModule</title><polygon fill="none" stroke="#000" stroke-dasharray="1 5" points="8 -70 8 -268 880 -268 880 -70 8 -70"/></g><g id="clust8" class="cluster"><title>cluster_AppModule_imports</title><polygon fill="none" stroke="#000" points="728 -78 728 -130 872 -130 872 -78 728 -78"/></g><g id="clust10" class="cluster"><title>cluster_AppModule_bootstrap</title><polygon fill="none" stroke="#000" points="392 -208 392 -260 516 -260 516 -208 392 -208"/></g><g id="clust2" class="cluster"><title>cluster_AppModule_declarations</title><polygon fill="none" stroke="#000" points="16 -78 16 -130 720 -130 720 -78 16 -78"/></g><g id="node1" class="node"><title>AppComponent</title><polygon fill="#ffffb3" stroke="#000" points="711.94 -122 606.06 -122 606.06 -86 711.94 -86 711.94 -122"/><text x="659" y="-99.8" font-family="Times,serif" font-size="14" text-anchor="middle">AppComponent</text></g><g id="node6" class="node"><title>AppModule</title><polygon fill="#8dd3c7" stroke="#000" points="495.66 -187 492.66 -191 471.66 -191 468.66 -187 412.34 -187 412.34 -151 495.66 -151 495.66 -187"/><text x="454" y="-164.8" font-family="Times,serif" font-size="14" text-anchor="middle">AppModule</text></g><g id="edge1" class="edge"><title>AppComponent-&gt;AppModule</title><path fill="none" stroke="#000" d="M659,-122.02C659,-139.37 659,-163 659,-163 659,-163 505.98,-163 505.98,-163"/><polygon fill="#000" stroke="#000" points="505.98 -159.5 495.98 -163 505.98 -166.5 505.98 -159.5"/></g><g id="node2" class="node"><title>ContactComponent</title><polygon fill="#ffffb3" stroke="#000" points="588.38 -122 463.62 -122 463.62 -86 588.38 -86 588.38 -122"/><text x="526" y="-99.8" font-family="Times,serif" font-size="14" text-anchor="middle">ContactComponent</text></g><g id="edge2" class="edge"><title>ContactComponent-&gt;AppModule</title><path fill="none" stroke="#000" d="M479.69,-122.11C479.69,-122.11 479.69,-140.99 479.69,-140.99"/><polygon fill="#000" stroke="#000" points="476.19 -140.99 479.69 -150.99 483.19 -140.99 476.19 -140.99"/></g><g id="node3" class="node"><title>ProductComponent</title><polygon fill="#ffffb3" stroke="#000" points="445.38 -122 320.62 -122 320.62 -86 445.38 -86 445.38 -122"/><text x="383" y="-99.8" font-family="Times,serif" font-size="14" text-anchor="middle">ProductComponent</text></g><g id="edge3" class="edge"><title>ProductComponent-&gt;AppModule</title><path fill="none" stroke="#000" d="M428.81,-122.11C428.81,-122.11 428.81,-140.99 428.81,-140.99"/><polygon fill="#000" stroke="#000" points="425.31 -140.99 428.81 -150.99 432.31 -140.99 425.31 -140.99"/></g><g id="node4" class="node"><title>ProductListComponent</title><polygon fill="#ffffb3" stroke="#000" points="302.16 -122 155.84 -122 155.84 -86 302.16 -86 302.16 -122"/><text x="229" y="-99.8" font-family="Times,serif" font-size="14" text-anchor="middle">ProductListComponent</text></g><g id="edge4" class="edge"><title>ProductListComponent-&gt;AppModule</title><path fill="none" stroke="#000" d="M229,-122.02C229,-139.37 229,-163 229,-163 229,-163 402.21,-163 402.21,-163"/><polygon fill="#000" stroke="#000" points="402.21 -166.5 412.21 -163 402.21 -159.5 402.21 -166.5"/></g><g id="node5" class="node"><title>StockComponent</title><polygon fill="#ffffb3" stroke="#000" points="137.72 -122 24.28 -122 24.28 -86 137.72 -86 137.72 -122"/><text x="81" y="-99.8" font-family="Times,serif" font-size="14" text-anchor="middle">StockComponent</text></g><g id="edge5" class="edge"><title>StockComponent-&gt;AppModule</title><path fill="none" stroke="#000" d="M81,-122.28C81,-143.32 81,-175 81,-175 81,-175 402.3,-175 402.3,-175"/><polygon fill="#000" stroke="#000" points="402.3 -178.5 412.3 -175 402.3 -171.5 402.3 -178.5"/></g><g id="node8" class="node"><title>AppComponent</title><polygon fill="#80b1d3" stroke="#000" points="508.44 -252 399.56 -252 399.56 -216 508.44 -216 508.44 -252"/><text x="454" y="-229.8" font-family="Times,serif" font-size="14" text-anchor="middle">AppComponent</text></g><g id="edge7" class="edge"><title>AppModule-&gt;AppComponent</title><path fill="none" stroke="#000" stroke-dasharray="1 5" d="M454,-187.11C454,-187.11 454,-205.99 454,-205.99"/><polygon fill="#000" stroke="#000" points="450.5 -205.99 454 -215.99 457.5 -205.99 450.5 -205.99"/></g><g id="node7" class="node"><title>AppRoutingModule</title><polygon fill="#8dd3c7" stroke="#000" points="864.27 -122 861.27 -126 840.27 -126 837.27 -122 735.73 -122 735.73 -86 864.27 -86 864.27 -122"/><text x="800" y="-99.8" font-family="Times,serif" font-size="14" text-anchor="middle">AppRoutingModule</text></g><g id="edge6" class="edge"><title>AppRoutingModule-&gt;AppModule</title><path fill="none" stroke="#000" d="M800,-122.28C800,-143.32 800,-175 800,-175 800,-175 505.74,-175 505.74,-175"/><polygon fill="#000" stroke="#000" points="505.74 -171.5 495.74 -175 505.74 -178.5 505.74 -171.5"/></g></g></svg>